<?xml version="1.0" encoding="utf-8"?>
<!-- Generator: Adobe Illustrator 21.0.2, SVG Export Plug-In . SVG Version: 6.00 Build 0)  -->
<svg version="1.1" id="Layer_1" xmlns="http://www.w3.org/2000/svg" xmlns:xlink="http://www.w3.org/1999/xlink" x="0px" y="0px"
	 viewBox="0 0 306.5 184.6" style="enable-background:new 0 0 306.5 184.6;" xml:space="preserve">
<style type="text/css">
	.st0{fill:#F1F2F2;}
	.st1{fill:#A7A9AC;}
	.st2{fill:#BCBEC0;}
	.st3{fill:#E6E7E8;}
	.st4{fill:#D1D3D4;}
</style>
<g>
	<path class="st0" d="M28.5,184.6c0,0,21.3-26.1-14.7-62.1s0.6-125.9,82.3-95S180.7,7.5,239.7,7.5s87.8,50.9,48,108.1
		c-26.9,38.5,2,69.1,2,69.1H28.5z"/>
	<path class="st0" d="M176.5,18.7c-13.9,6.9-29.6,11.5-55.3,6.8c-10.2-1.8-11.6-15.9-2-19.7c7.4-2.9,16.2-5.3,25.9-5.8
		c11-0.5,21.1,0.7,29.2,2.3C182.5,4,183.9,15,176.5,18.7z"/>
	<path class="st0" d="M283.7,162.2c-3.1-9-4.2-21.6,4-35c2.1-3.3,5.5-5.4,9.1-5.3c4.5,0.2,9.6,4,9.6,19.5c0,9.4-1.7,16.4-4,21.6
		C298.6,172.1,286.9,171.5,283.7,162.2z"/>
</g>
<g>
	<path class="st1" d="M118.5,73.9l22.8-22.8c1.9-1.9,1.9-4.9,0-6.8c-1.9-1.9-4.9-1.9-6.8,0L105,73.9H118.5z"/>
	<path class="st2" d="M138,52.5c-2.6,0-4.8-2.1-4.8-4.8s2.1-4.8,4.8-4.8h107.1c2.6,0,4.8,2.1,4.8,4.8s-2.1,4.8-4.8,4.8H138z"/>
	<path class="st2" d="M275.6,73.9c4.3,0,7.8,3.5,7.8,7.8c0,4.3-3.5,7.8-7.8,7.8H156V73.9H275.6z"/>
	<polygon class="st3" points="156,184.6 60.8,184.6 36.3,89.5 156,89.5 	"/>
	<polygon class="st4" points="156,184.6 251.1,184.6 275.6,89.5 156,89.5 	"/>
	<path class="st3" d="M185.7,161.6c0,2.6-2.1,4.8-4.8,4.8s-4.8-2.1-4.8-4.8v-49.2c0-2.6,2.1-4.8,4.8-4.8s4.8,2.1,4.8,4.8V161.6z"/>
	<path class="st3" d="M244.4,161.6c0,2.6-2.1,4.8-4.8,4.8s-4.8-2.1-4.8-4.8v-49.2c0-2.6,2.1-4.8,4.8-4.8s4.8,2.1,4.8,4.8V161.6z"/>
	<path class="st3" d="M215.1,161.6c0,2.6-2.1,4.8-4.8,4.8s-4.8-2.1-4.8-4.8v-49.2c0-2.6,2.1-4.8,4.8-4.8s4.8,2.1,4.8,4.8V161.6z"/>
	<path class="st0" d="M78.6,161.6c0,2.6-2.1,4.8-4.8,4.8s-4.8-2.1-4.8-4.8v-49.2c0-2.6,2.1-4.8,4.8-4.8s4.8,2.1,4.8,4.8V161.6z"/>
	<path class="st0" d="M137.3,161.6c0,2.6-2.1,4.8-4.8,4.8s-4.8-2.1-4.8-4.8v-49.2c0-2.6,2.1-4.8,4.8-4.8s4.8,2.1,4.8,4.8V161.6z"/>
	<path class="st0" d="M107.9,161.6c0,2.6-2.1,4.8-4.8,4.8s-4.8-2.1-4.8-4.8v-49.2c0-2.6,2.1-4.8,4.8-4.8s4.8,2.1,4.8,4.8V161.6z"/>
	<path class="st4" d="M36.3,73.9c-4.3,0-7.8,3.5-7.8,7.8c0,4.3,3.5,7.8,7.8,7.8H156V73.9H36.3z"/>
	<circle class="st2" cx="81.7" cy="137" r="4.5"/>
	<circle class="st2" cx="124.6" cy="137" r="4.5"/>
	
		<rect x="101.7" y="131.5" transform="matrix(-1.836970e-16 1 -1 -1.836970e-16 243.259 36.9882)" class="st2" width="2.8" height="17.2"/>
	<path class="st1" d="M213.7,85.9c-1.9,1.9-4.9,1.9-6.8,0c-1.9-1.9-1.9-4.9,0-6.8l34.8-34.8c1.9-1.9,4.9-1.9,6.8,0
		c1.9,1.9,1.9,4.9,0,6.8L213.7,85.9z"/>
</g>
</svg>
